<svg xmlns="http://www.w3.org/2000/svg" xmlns:xlink="http://www.w3.org/1999/xlink" viewBox="0 0 201 201"><defs><style>.cls-1{stroke:#fff;stroke-miterlimit:10;fill:url(#linear-gradient);}.cls-2{fill:#fff;}</style><linearGradient id="linear-gradient" x1="6.36" y1="194.64" x2="194.64" y2="6.36" gradientUnits="userSpaceOnUse"><stop offset="0" stop-color="#662d91"/><stop offset="0.49" stop-color="#9e1f63"/><stop offset="1" stop-color="#da1c5c"/></linearGradient></defs><title>Asset 4</title><g id="Layer_2" data-name="Layer 2"><g id="Layer_1-2" data-name="Layer 1"><rect class="cls-1" x="0.5" y="0.5" width="200" height="200" rx="20" ry="20"/><path class="cls-2" d="M82.68,82.26H36.53v-22H154.7v22H108.55v118.2H82.68Z"/><path class="cls-2" d="M163,200.46,144.29,172.3a51.73,51.73,0,0,1-7.63.6H114.22v27.56H108.5V116.23h28.16c19.74,0,31.64,10.59,31.64,28.4,0,13.36-6.73,22.62-18.4,26.35l19.63,29.48Zm-26.36-33c16.83,0,25.8-8.42,25.8-22.86s-9-22.86-25.8-22.86H114.22v45.73Z"/></g></g></svg>