<svg xmlns="http://www.w3.org/2000/svg" xmlns:xlink="http://www.w3.org/1999/xlink" viewBox="0 0 201 201"><defs><style>.cls-1{stroke:#fff;stroke-miterlimit:10;fill:url(#linear-gradient);}.cls-2{fill:#fff;}</style><linearGradient id="linear-gradient" x1="-11.46" y1="165.14" x2="212.46" y2="35.86" gradientUnits="userSpaceOnUse"><stop offset="0" stop-color="#662d91"/><stop offset="0.49" stop-color="#9e1f63"/><stop offset="1" stop-color="#da1c5c"/></linearGradient></defs><title>Asset 3</title><g id="Layer_2" data-name="Layer 2"><g id="Layer_1-2" data-name="Layer 1"><rect class="cls-1" x="0.5" y="0.5" width="200" height="200" rx="20" ry="20"/><path class="cls-2" d="M45.52,75.92V200.49H28.18V91.4H.5V75.92Z"/><path class="cls-2" d="M141,185v15.48H52.88v-12.1l49.93-48.94c13-12.81,15.42-20.64,15.42-28.47,0-12.81-8.93-20.64-26.1-20.64-13.14,0-23.83,4.27-31.36,13.52L48.85,93.36C58.31,81.44,74.6,74.49,93.7,74.49c25.58,0,42,13.35,42,34.7,0,12.1-3.5,23-20.15,39.15L78.1,185Z"/><path class="cls-2" d="M173.11,63.08l4.9,5.84C173.58,74.2,166.7,77,158.4,77c-16.12,0-26.87-10.65-26.87-25.55S142.09,26,156.61,26c13.67,0,24.32,9.62,24.6,24.51l-39.69,7.73c2.55,6.88,8.77,10.84,17.16,10.84C164.53,69.11,169.43,67.13,173.11,63.08ZM140.3,51V52l32-6c-1.6-7.16-7.54-12.25-15.65-12.25C147.09,33.67,140.3,40.55,140.3,51Z"/></g></g></svg>